<svg xmlns="http://www.w3.org/2000/svg" xmlns:xlink="http://www.w3.org/1999/xlink" viewBox="0 0 514 183"><defs><style>      .cls-1 {        fill: #fff;      }      .cls-2 {        fill: url(#Gradiente_sem_nome);      }      .cls-3 {        isolation: isolate;      }    </style><linearGradient id="Gradiente_sem_nome" data-name="Gradiente sem nome" x1="152.1" y1="151.1" x2="31.9" y2="30.9" gradientTransform="translate(0 184) scale(1 -1)" gradientUnits="userSpaceOnUse"><stop offset="0" stop-color="#e93a00"></stop><stop offset=".8" stop-color="#e95600"></stop><stop offset=".9" stop-color="#e95b00"></stop></linearGradient></defs><g><g id="Camada_1"><g class="cls-3"><g class="cls-3"><path class="cls-1" d="M195,91.8v-42.1h5.4v27.3s0,14.8,0,14.8h-5.4ZM198.5,77.8v-4.5h12c2.9,0,5-.7,6.3-2.2,1.3-1.4,1.9-3.4,1.9-5.9v-2.9c0-2.6-.6-4.6-1.9-6-1.3-1.4-3.4-2.1-6.2-2.1h-12.1v-4.5h12.2c4.7,0,8.1,1.1,10.3,3.3,2.1,2.2,3.2,5.2,3.2,9.1v3.2c0,3.9-1.1,7-3.2,9.2-2.2,2.2-5.6,3.3-10.3,3.3h-12.1Z"></path><path class="cls-1" d="M224.8,91.8l13.2-42.1h8.6l13.2,42.1h-5.5l-11.6-38.4h-.8l-11.6,38.4h-5.5ZM232.7,79.4v-4.5h19.2v4.5h-19.2Z"></path><path class="cls-1" d="M266.4,91.8v-42.1h5.4v24.6s0,17.5,0,17.5h-5.4ZM290.9,91.8l-1.2-8.6c-.2-1.6-.6-3-1.1-4.2s-1.3-2.1-2.4-2.8c-1.1-.7-2.6-1-4.6-1h-11.4v-4.3h12.2c2.9,0,4.9-.7,6.2-2.2,1.2-1.4,1.8-3.3,1.8-5.8v-1c0-2.4-.6-4.3-1.9-5.6s-3.3-2-6.3-2h-12.3v-4.5h13c4.5,0,7.8,1,9.9,3s3.1,4.7,3.1,8.2v1.1c0,2.7-.6,5-1.9,6.7-1.3,1.7-3.4,2.8-6.5,3.2v.7l-2.3-.8c2.4.2,4.3.7,5.7,1.6,1.3.9,2.3,2.1,2.9,3.6.6,1.5,1.1,3.4,1.4,5.5l1.4,9.3h-5.6Z"></path><path class="cls-1" d="M300.9,91.8l13.2-42.1h8.6l13.2,42.1h-5.5l-11.6-38.4h-.8l-11.6,38.4h-5.5ZM308.8,79.4v-4.5h19.2v4.5h-19.2Z"></path><path class="cls-1" d="M388.8,93.1l-17.8-.5c-6.3-.2-11-1.7-13.9-4.6-2.9-2.9-4.4-7-4.4-12.4v-9.7c0-5.4,1.4-9.6,4.2-12.6s6.8-4.4,12.1-4.4,6.5.7,9,2c2.4,1.3,4.2,3.2,5.5,5.8,1.2,2.5,1.8,5.6,1.8,9.3v8.9c0,2.2-.2,4-.7,5.6-.5,1.6-1.2,2.9-2,4s-1.9,1.9-3.1,2.6c-1.2.6-2.5,1.1-4,1.3v.2c0,0,13.3-.3,13.3-.3v4.8ZM370.1,88h.7c1.2-.2,2.4-.7,3.5-1.2s2-1.4,2.9-2.3c.8-1,1.5-2.2,1.9-3.6.5-1.4.7-3.1.7-5v-10.2c0-3.9-.9-6.9-2.7-9-1.8-2.1-4.5-3.1-8-3.1s-6.2,1-8,3.1c-1.8,2.1-2.7,5.1-2.7,9v10.2c0,3.9,1,6.8,3.1,8.9s4.9,3.2,8.7,3.3Z"></path><path class="cls-1" d="M408.9,92.6c-5.3,0-9.2-1.4-11.7-4.1-2.5-2.7-3.8-6.7-3.8-11.8v-27h5.5v27.1c0,3.6.8,6.4,2.4,8.3,1.6,1.9,4.1,2.9,7.6,2.9s6.1-1,7.6-2.9c1.6-1.9,2.4-4.7,2.4-8.3v-27.1h5.5v27c0,5.2-1.3,9.1-3.8,11.8-2.5,2.7-6.4,4.1-11.7,4.1Z"></path><path class="cls-1" d="M434,91.8v-42.1h5.4v42.1h-5.4ZM435.6,54.3v-4.6h24.5v4.6h-24.5ZM435.6,91.8v-4.6h24.6v4.6h-24.6ZM437.1,72.6v-4.5h22.5v4.5h-22.5Z"></path><path class="cls-1" d="M467.8,91.8l1.6-42.1h8.5l10,30.4h.5l10-30.4h8.5l1.6,42.1h-5.3l-.6-17.8-.6-18.7h-.6l-10.4,31.6h-5.7l-10.4-31.6h-.6l-.6,18.7-.6,17.7h-5.3Z"></path></g><g class="cls-3"><path class="cls-1" d="M208,109l11.4,30.9h.5l-.5-17.8v-13.1h9.8v42.1h-13.8l-11.8-31.6h-.4l.5,18.2v13.4h-9.8v-42.1h14.2Z"></path><path class="cls-1" d="M233.8,151.1l12.1-42.1h15.5l12,42.1h-10.4l-8.9-35.3h-.8l-9,35.3h-10.4ZM258.1,105.3c-.8,0-1.6,0-2.3-.3-.7-.2-1.5-.4-2.1-.6-.7-.2-1.3-.4-1.9-.6-.6-.2-1.2-.3-1.7-.3s-1,.2-1.3.5c-.3.3-.4.9-.4,1.5h0c0,.1-5.6.1-5.6.1v-1.2c0-2.1.5-3.9,1.4-5.2,1-1.4,2.6-2,5-2s1.6,0,2.4.3c.8.2,1.5.4,2.1.6.7.2,1.3.4,1.9.6.6.2,1.2.3,1.7.3s1.1-.2,1.3-.5.4-.9.4-1.5h0c0-.1,5.6-.1,5.6-.1v1.1c0,2.2-.5,4-1.4,5.3-1,1.4-2.6,2-5,2ZM244,141.2v-8h19v8h-19Z"></path><path class="cls-1" d="M293.7,152.1c-6.1,0-10.7-1.5-13.8-4.6-3.1-3.1-4.6-7.5-4.6-13.3v-8c0-5.8,1.5-10.3,4.6-13.4,3.1-3.2,7.7-4.7,13.8-4.7s10.7,1.6,13.8,4.7c3.1,3.2,4.6,7.6,4.6,13.4v8c0,5.8-1.5,10.2-4.6,13.3-3.1,3.1-7.7,4.6-13.8,4.6ZM293.7,143.6c2.7,0,4.6-.8,5.9-2.3,1.3-1.6,1.9-3.7,1.9-6.6v-9c0-2.9-.6-5.2-1.9-6.8-1.3-1.6-3.3-2.4-5.9-2.4s-4.6.8-5.9,2.4c-1.3,1.6-1.9,3.8-1.9,6.8v9c0,2.8.6,5,1.9,6.6,1.3,1.6,3.3,2.3,5.9,2.3Z"></path><path class="cls-1" d="M329.3,151.1v-42.1h10.1v42.1h-10.1ZM332.2,117.5v-8.5h26.2v8.5h-26.2ZM332.3,151.1v-8.6h26.5v8.6h-26.5ZM335.2,133.9v-8.3h22.8v8.3h-22.8ZM346.4,96.6h10.8c0,0-9.2,9-9.2,9h-8.9c0,0,7.3-9,7.3-9Z"></path><path class="cls-1" d="M369.6,131.3c-1.9,0-3.3-.5-4.2-1.5-.9-1-1.3-2.3-1.3-4.1v-.4c0-1.7.4-3.1,1.3-4.1s2.3-1.5,4.2-1.5,3.2.5,4.1,1.5c.9,1,1.4,2.3,1.4,4.1v.4c0,1.7-.5,3.1-1.4,4.1-.9,1-2.3,1.5-4.1,1.5ZM369.6,152c-1.9,0-3.3-.5-4.2-1.5-.9-1-1.3-2.3-1.3-4.1v-.4c0-1.7.4-3.1,1.3-4.1s2.3-1.5,4.2-1.5,3.2.5,4.1,1.5c.9,1,1.4,2.3,1.4,4.1v.4c0,1.7-.5,3.1-1.4,4.1-.9,1-2.3,1.5-4.1,1.5Z"></path></g></g><path class="cls-2" d="M92,8C45.1,8,7,46.1,7,93s38.1,85,85,85,85-38.1,85-85S138.9,8,92,8ZM92,32c14.7,0,28.1,5.2,38.7,13.9l-85.8,85.8c-8.7-10.5-13.9-24-13.9-38.7,0-33.6,27.4-61,61-61h0ZM92,154c-10.3,0-20-2.6-28.5-7.1l82.4-82.4c4.5,8.5,7.1,18.2,7.1,28.5,0,33.6-27.4,61-61,61Z"></path></g></g></svg>