<svg xmlns="http://www.w3.org/2000/svg" xmlns:xlink="http://www.w3.org/1999/xlink" viewBox="0 0 514 183"><defs><style>      .cls-1 {        fill: #fff;      }      .cls-2 {        fill: url(#Gradiente_sem_nome);      }      .cls-3 {        fill: none;        stroke: #fa9;        stroke-miterlimit: 10;        stroke-width: 24px;      }      .cls-4 {        isolation: isolate;      }    </style><linearGradient id="Gradiente_sem_nome" data-name="Gradiente sem nome" x1="152.1" y1="30.9" x2="31.9" y2="151.1" gradientTransform="translate(0 184) scale(1 -1)" gradientUnits="userSpaceOnUse"><stop offset="0" stop-color="#13853d"></stop><stop offset="1" stop-color="#54dc6a"></stop></linearGradient></defs><g><g id="Camada_1"><g id="Camada_1-2" data-name="Camada_1"><g class="cls-4"><g class="cls-4"><g class="cls-4"><path class="cls-1" d="M195,91.8v-42.1h5.4v27.3s0,14.8,0,14.8h-5.4ZM198.5,77.8v-4.5h12c2.9,0,5-.7,6.3-2.2,1.3-1.4,1.9-3.4,1.9-5.9v-2.9c0-2.6-.6-4.6-1.9-6-1.3-1.4-3.4-2.1-6.2-2.1h-12.1v-4.5h12.2c4.7,0,8.1,1.1,10.3,3.3,2.1,2.2,3.2,5.2,3.2,9.1v3.2c0,3.9-1.1,7-3.2,9.2-2.2,2.2-5.6,3.3-10.3,3.3h-12.1Z"></path><path class="cls-1" d="M224.8,91.8l13.2-42.1h8.6l13.2,42.1h-5.5l-11.6-38.4h-.8l-11.6,38.4h-5.5ZM232.7,79.4v-4.5h19.2v4.5h-19.2Z"></path><path class="cls-1" d="M266.4,91.8v-42.1h5.4v24.6s0,17.5,0,17.5h-5.4ZM290.9,91.8l-1.2-8.6c-.2-1.6-.6-3-1.1-4.2s-1.3-2.1-2.4-2.8c-1.1-.7-2.6-1-4.6-1h-11.4v-4.3h12.2c2.9,0,4.9-.7,6.2-2.2,1.2-1.4,1.8-3.3,1.8-5.8v-1c0-2.4-.6-4.3-1.9-5.6s-3.3-2-6.3-2h-12.3v-4.5h13c4.5,0,7.8,1,9.9,3s3.1,4.7,3.1,8.2v1.1c0,2.7-.6,5-1.9,6.7-1.3,1.7-3.4,2.8-6.5,3.2v.7l-2.3-.8c2.4.2,4.3.7,5.7,1.6,1.3.9,2.3,2.1,2.9,3.6.6,1.5,1.1,3.4,1.4,5.5l1.4,9.3h-5.6Z"></path><path class="cls-1" d="M300.9,91.8l13.2-42.1h8.6l13.2,42.1h-5.5l-11.6-38.4h-.8l-11.6,38.4h-5.5ZM308.8,79.4v-4.5h19.2v4.5h-19.2Z"></path></g></g><g class="cls-4"><g class="cls-4"><path class="cls-1" d="M231.6,152.9l-18.3-.7c-7.4-.3-12.7-2-16-5s-4.9-7.5-4.9-13.3v-7.6c0-5.8,1.5-10.2,4.6-13.4,3.1-3.2,7.7-4.7,13.8-4.7s7.4.7,10.1,2.1c2.7,1.4,4.8,3.5,6.1,6.1,1.4,2.7,2.1,6,2.1,9.8v5.7c0,1.8-.2,3.5-.6,4.9s-1,2.6-1.8,3.6c-.8,1-1.8,1.8-2.9,2.4-1.1.6-2.4,1-3.9,1.3v.4l11.6-.4v8.8ZM211.8,143.5h1.1c.9-.2,1.6-.6,2.3-1.1.7-.5,1.3-1.2,1.8-2,.5-.8.9-1.7,1.2-2.9.3-1.1.4-2.4.4-3.8v-8c0-3-.6-5.2-1.9-6.8-1.3-1.6-3.3-2.4-5.9-2.4s-4.6.8-5.9,2.4c-1.3,1.6-1.9,3.9-1.9,6.8v8.5c0,3,.8,5.2,2.4,6.8,1.6,1.6,3.7,2.4,6.4,2.5Z"></path><path class="cls-1" d="M253,152.1c-6,0-10.5-1.5-13.4-4.4-2.9-2.9-4.3-7.2-4.3-12.8v-26h10.3v26.2c0,2.7.6,4.8,1.8,6.2,1.2,1.4,3,2.1,5.6,2.1s4.4-.7,5.6-2.1c1.2-1.4,1.7-3.5,1.7-6.2v-26.2h10.3v26c0,5.6-1.4,9.9-4.3,12.8-2.9,2.9-7.3,4.4-13.4,4.4Z"></path><path class="cls-1" d="M278,151.1v-42.1h10.1v42.1h-10.1ZM281,117.5v-8.5h26.2v8.5h-26.2ZM281,151.1v-8.6h26.5v8.6h-26.5ZM283.9,133.9v-8.3h22.8v8.3h-22.8Z"></path><path class="cls-1" d="M313.6,151.1l1.3-42.1h14.4l7,25.1h.4l7-25.1h14.4l1.3,42.1h-10l-.3-13.8-.3-16.8h-.5l-7.2,25.7h-9.2l-7.2-25.7h-.5l-.3,16.8-.3,13.8h-10Z"></path><path class="cls-1" d="M377.3,151.1v-42.1h10.1v42.1h-10.1ZM380.2,117.5v-8.5h26.2v8.5h-26.2ZM380.2,151.1v-8.6h26.5v8.6h-26.5ZM383.1,133.9v-8.3h22.8v8.3h-22.8ZM394.4,96.6h10.8c0,0-9.2,9-9.2,9h-8.9c0,0,7.3-9,7.3-9Z"></path><path class="cls-1" d="M417.6,131.3c-1.9,0-3.3-.5-4.2-1.5-.9-1-1.3-2.3-1.3-4.1v-.4c0-1.7.4-3.1,1.3-4.1s2.3-1.5,4.2-1.5,3.2.5,4.1,1.5c.9,1,1.4,2.3,1.4,4.1v.4c0,1.7-.5,3.1-1.4,4.1-.9,1-2.3,1.5-4.1,1.5ZM417.6,152c-1.9,0-3.3-.5-4.2-1.5-.9-1-1.3-2.3-1.3-4.1v-.4c0-1.7.4-3.1,1.3-4.1s2.3-1.5,4.2-1.5,3.2.5,4.1,1.5c.9,1,1.4,2.3,1.4,4.1v.4c0,1.7-.5,3.1-1.4,4.1-.9,1-2.3,1.5-4.1,1.5Z"></path></g></g></g><path class="cls-2" d="M92,8C45.1,8,7,46.1,7,93s38.1,85,85,85,85-38.1,85-85S138.9,8,92,8ZM72.8,144.9l-46.1-47.1,17.1-16.8,29.3,29.9,62.6-61.3,16.8,17.1-79.7,78.1h0Z"></path><polyline class="cls-3" points="-67.4 50.2 -138.6 119.9 -176.3 81.4"></polyline></g></g></g></svg>