<svg xmlns="http://www.w3.org/2000/svg" xmlns:xlink="http://www.w3.org/1999/xlink" id="Layer_2" data-name="Layer 2" viewBox="0 0 185.98 185.98"><defs><style>      .cls-1 {        fill: url(#linear-gradient-12);      }      .cls-1, .cls-2, .cls-3, .cls-4, .cls-5, .cls-6, .cls-7, .cls-8, .cls-9, .cls-10, .cls-11, .cls-12, .cls-13, .cls-14, .cls-15, .cls-16, .cls-17, .cls-18, .cls-19, .cls-20, .cls-21, .cls-22, .cls-23, .cls-24, .cls-25, .cls-26, .cls-27, .cls-28, .cls-29, .cls-30 {        stroke-width: 0px;      }      .cls-2 {        fill: url(#linear-gradient-17);      }      .cls-3 {        fill: url(#linear-gradient-19);      }      .cls-4 {        fill: url(#linear-gradient);      }      .cls-5 {        fill: url(#linear-gradient-21);      }      .cls-6 {        fill: url(#linear-gradient-6);      }      .cls-7 {        fill: url(#linear-gradient-15);      }      .cls-8 {        fill: url(#linear-gradient-11);      }      .cls-9 {        fill: url(#linear-gradient-5);      }      .cls-10 {        fill: url(#linear-gradient-13);      }      .cls-11 {        fill: url(#linear-gradient-23);      }      .cls-12 {        fill: url(#linear-gradient-25);      }      .cls-13 {        fill: url(#linear-gradient-16);      }      .cls-14 {        fill: url(#linear-gradient-22);      }      .cls-15 {        fill: #fff;      }      .cls-16 {        fill: url(#linear-gradient-20);      }      .cls-17 {        fill: url(#linear-gradient-14);      }      .cls-18 {        fill: url(#linear-gradient-2);      }      .cls-19 {        fill: url(#linear-gradient-7);      }      .cls-20 {        fill: url(#linear-gradient-3);      }      .cls-21 {        fill: url(#linear-gradient-9);      }      .cls-22 {        fill: url(#linear-gradient-27);      }      .cls-23 {        fill: url(#linear-gradient-8);      }      .cls-24 {        fill: url(#linear-gradient-24);      }      .cls-25 {        fill: url(#linear-gradient-26);      }      .cls-26 {        fill: url(#linear-gradient-18);      }      .cls-27 {        fill: url(#linear-gradient-29);      }      .cls-28 {        fill: url(#linear-gradient-28);      }      .cls-29 {        fill: url(#linear-gradient-10);      }      .cls-30 {        fill: url(#linear-gradient-4);      }    </style><linearGradient id="linear-gradient" x1="29.57" y1="24.76" x2="154.6" y2="159.27" gradientUnits="userSpaceOnUse"><stop offset="0" stop-color="#dc7a2c"></stop><stop offset="1" stop-color="#e2a332"></stop></linearGradient><linearGradient id="linear-gradient-2" x1="56.96" y1="54.23" x2="129.03" y2="131.76" xlink:href="#linear-gradient"></linearGradient><linearGradient id="linear-gradient-3" x1="-2.17" y1="54.26" x2="122.87" y2="188.77" xlink:href="#linear-gradient"></linearGradient><linearGradient id="linear-gradient-4" x1="-10.73" y1="62.21" x2="114.31" y2="196.73" xlink:href="#linear-gradient"></linearGradient><linearGradient id="linear-gradient-5" x1="9.14" y1="43.74" x2="134.18" y2="178.26" xlink:href="#linear-gradient"></linearGradient><linearGradient id="linear-gradient-6" x1="-15.67" y1="66.8" x2="109.37" y2="201.32" xlink:href="#linear-gradient"></linearGradient><linearGradient id="linear-gradient-7" x1="67.64" y1="-10.63" x2="192.67" y2="123.89" xlink:href="#linear-gradient"></linearGradient><linearGradient id="linear-gradient-8" x1="59.08" y1="-2.67" x2="184.11" y2="131.84" xlink:href="#linear-gradient"></linearGradient><linearGradient id="linear-gradient-9" x1="72.57" y1="-15.22" x2="197.61" y2="119.3" xlink:href="#linear-gradient"></linearGradient><linearGradient id="linear-gradient-10" x1="47.77" y1="7.84" x2="172.81" y2="142.36" xlink:href="#linear-gradient"></linearGradient><linearGradient id="linear-gradient-11" x1="29.57" y1="24.76" x2="154.6" y2="159.27" xlink:href="#linear-gradient"></linearGradient><linearGradient id="linear-gradient-12" x1="29.57" y1="24.76" x2="154.6" y2="159.27" xlink:href="#linear-gradient"></linearGradient><linearGradient id="linear-gradient-13" x1="26.12" y1="27.96" x2="151.15" y2="162.48" xlink:href="#linear-gradient"></linearGradient><linearGradient id="linear-gradient-14" x1="37.81" y1="17.1" x2="162.84" y2="151.62" xlink:href="#linear-gradient"></linearGradient><linearGradient id="linear-gradient-15" x1="49.7" y1="6.04" x2="174.73" y2="140.56" xlink:href="#linear-gradient"></linearGradient><linearGradient id="linear-gradient-16" x1="58.41" y1="-2.06" x2="183.45" y2="132.46" xlink:href="#linear-gradient"></linearGradient><linearGradient id="linear-gradient-17" x1="68.65" y1="-11.57" x2="193.69" y2="122.94" xlink:href="#linear-gradient"></linearGradient><linearGradient id="linear-gradient-18" x1="74.55" y1="-17.06" x2="199.59" y2="117.46" xlink:href="#linear-gradient"></linearGradient><linearGradient id="linear-gradient-19" x1="75.97" y1="-18.38" x2="201" y2="116.14" xlink:href="#linear-gradient"></linearGradient><linearGradient id="linear-gradient-20" x1="76.04" y1="-18.44" x2="201.08" y2="116.08" xlink:href="#linear-gradient"></linearGradient><linearGradient id="linear-gradient-21" x1="-17.52" y1="68.52" x2="107.52" y2="203.04" xlink:href="#linear-gradient"></linearGradient><linearGradient id="linear-gradient-22" x1="-17.71" y1="68.7" x2="107.33" y2="203.22" xlink:href="#linear-gradient"></linearGradient><linearGradient id="linear-gradient-23" x1="-16.93" y1="67.97" x2="108.11" y2="202.49" xlink:href="#linear-gradient"></linearGradient><linearGradient id="linear-gradient-24" x1="-13.58" y1="64.86" x2="111.46" y2="199.38" xlink:href="#linear-gradient"></linearGradient><linearGradient id="linear-gradient-25" x1="-7.84" y1="59.53" x2="117.2" y2="194.04" xlink:href="#linear-gradient"></linearGradient><linearGradient id="linear-gradient-26" x1="2.88" y1="49.56" x2="127.91" y2="184.08" xlink:href="#linear-gradient"></linearGradient><linearGradient id="linear-gradient-27" x1="11.79" y1="41.28" x2="136.83" y2="175.8" xlink:href="#linear-gradient"></linearGradient><linearGradient id="linear-gradient-28" x1="21.82" y1="31.96" x2="146.85" y2="166.48" xlink:href="#linear-gradient"></linearGradient><linearGradient id="linear-gradient-29" x1="32.97" y1="21.6" x2="158" y2="156.11" xlink:href="#linear-gradient"></linearGradient></defs><g id="TEXTS"><path class="cls-4" d="m92.99,178.11c-46.94,0-85.12-38.19-85.12-85.12S46.06,7.87,92.99,7.87s85.12,38.19,85.12,85.12-38.19,85.12-85.12,85.12Zm0-165.39C48.73,12.73,12.73,48.73,12.73,92.99s36.01,80.26,80.26,80.26,80.26-36.01,80.26-80.26S137.25,12.73,92.99,12.73Z"></path><path class="cls-18" d="m92.99,145.94c-29.2,0-52.95-23.75-52.95-52.95s23.75-52.95,52.95-52.95,52.95,23.75,52.95,52.95-23.75,52.95-52.95,52.95Zm0-103.9c-28.09,0-50.95,22.86-50.95,50.95s22.86,50.95,50.95,50.95,50.95-22.86,50.95-50.95-22.86-50.95-50.95-50.95Z"></path><polygon class="cls-20" points="27.93 80.86 29.25 84.46 32.8 84.4 30.18 86.77 31.31 90.49 27.93 88.17 24.55 90.49 25.68 86.77 23.06 84.4 26.61 84.46 27.93 80.86"></polygon><polygon class="cls-30" points="27.93 98.02 29.25 101.63 32.8 101.56 30.18 103.94 31.31 107.66 27.93 105.34 24.55 107.66 25.68 103.94 23.06 101.56 26.61 101.63 27.93 98.02"></polygon><polygon class="cls-9" points="33.87 64.57 35.19 68.17 38.74 68.11 36.12 70.48 37.25 74.2 33.87 71.88 30.49 74.2 31.62 70.48 29 68.11 32.55 68.17 33.87 64.57"></polygon><polygon class="cls-6" points="33.87 114.31 35.19 117.91 38.74 117.85 36.12 120.22 37.25 123.94 33.87 121.62 30.49 123.94 31.62 120.22 29 117.85 32.55 117.91 33.87 114.31"></polygon><polygon class="cls-19" points="158.05 80.86 156.73 84.46 153.18 84.4 155.8 86.77 154.67 90.49 158.05 88.17 161.43 90.49 160.3 86.77 162.92 84.4 159.37 84.46 158.05 80.86"></polygon><polygon class="cls-23" points="158.05 98.02 156.73 101.63 153.18 101.56 155.8 103.94 154.67 107.66 158.05 105.34 161.43 107.66 160.3 103.94 162.92 101.56 159.37 101.63 158.05 98.02"></polygon><polygon class="cls-21" points="152.11 64.57 150.79 68.17 147.24 68.11 149.86 70.48 148.73 74.2 152.11 71.88 155.49 74.2 154.36 70.48 156.98 68.11 153.43 68.17 152.11 64.57"></polygon><polygon class="cls-29" points="152.11 114.31 150.79 117.91 147.24 117.85 149.86 120.22 148.73 123.94 152.11 121.62 155.49 123.94 154.36 120.22 156.98 117.85 153.43 117.91 152.11 114.31"></polygon><path class="cls-8" d="m92.99,185.98C41.72,185.98,0,144.27,0,92.99S41.72,0,92.99,0s92.99,41.72,92.99,92.99-41.72,92.99-92.99,92.99ZM92.99.5C41.99.5.5,41.99.5,92.99s41.49,92.49,92.49,92.49,92.49-41.49,92.49-92.49S143.99.5,92.99.5Z"></path><path class="cls-1" d="m92.99,181.24c-48.66,0-88.24-39.59-88.24-88.24S44.33,4.75,92.99,4.75s88.24,39.59,88.24,88.24-39.59,88.24-88.24,88.24Zm0-175.49C44.89,5.75,5.75,44.89,5.75,92.99s39.14,87.24,87.24,87.24,87.24-39.14,87.24-87.24S141.1,5.75,92.99,5.75Z"></path><g><path class="cls-10" d="m51.71,53.13c-.62.77-1.31,1.38-2.08,1.83s-1.57.72-2.42.83-1.68.05-2.51-.18c-.83-.23-1.62-.64-2.36-1.23-.74-.59-1.32-1.27-1.72-2.03-.41-.76-.65-1.56-.73-2.41-.08-.85.02-1.7.28-2.55.26-.85.71-1.66,1.33-2.44.63-.79,1.34-1.41,2.12-1.86.78-.45,1.61-.7,2.49-.75l.18,1.59c-.73.09-1.37.3-1.94.63-.57.33-1.08.78-1.53,1.34-.46.57-.78,1.18-.98,1.82-.2.64-.27,1.28-.21,1.91.06.63.24,1.23.56,1.8s.75,1.08,1.3,1.52c.54.43,1.13.74,1.75.92.63.18,1.26.23,1.89.15.63-.08,1.24-.29,1.81-.62.58-.33,1.09-.79,1.55-1.36.43-.53.75-1.11.98-1.73.22-.62.31-1.3.25-2.03l1.73.05c.02.83-.12,1.66-.44,2.49-.31.83-.75,1.6-1.31,2.3Zm.47-3.57l-3.71-2.96,1.09-1.37,3.9,3.11-1.28,1.22Z"></path><path class="cls-17" d="m56.59,47.06l-2.63-13.78,1.48-1.04,12.11,7.1-1.57,1.1-11-6.64.6-.42,2.55,12.59-1.54,1.08Zm.17-4.03l-.44-1.48,5.88-4.15,1.27.89-6.72,4.73Z"></path><path class="cls-7" d="m70.49,38.21l-3.95-12.16,4.74-1.54c1.07-.35,2.03-.47,2.89-.38.86.09,1.6.39,2.21.9.61.51,1.06,1.2,1.35,2.08.29.88.33,1.7.13,2.46-.2.76-.62,1.43-1.27,2.01s-1.5,1.04-2.56,1.39l-3.79,1.23.52-1.05,1.46,4.5-1.74.56Zm.33-4.89l-1.06-.6,3.73-1.21c1.11-.36,1.88-.88,2.29-1.54.42-.67.48-1.43.2-2.3-.28-.87-.79-1.45-1.51-1.74-.73-.29-1.65-.25-2.76.11l-3.73,1.21.5-1.12,2.34,7.19Zm7.8,2.25l-4.52-3.41,1.86-.6,4.56,3.4-1.89.61Z"></path><path class="cls-13" d="m82.8,34.49l5.15-13.06,1.81-.09,6.44,12.48-1.92.1-5.75-11.49.73-.04-4.58,12-1.88.09Zm2.3-3.31l.42-1.48,7.19-.36.6,1.43-8.21.41Z"></path><path class="cls-2" d="m99.71,34.17l2.57-12.52,1.47.3,6.17,11.99-.77-.16,2.11-10.29,1.79.37-2.57,12.52-1.47-.3-6.17-11.99.77.16-2.11,10.29-1.79-.37Z"></path><path class="cls-26" d="m117.52,39.53l5.2-9.91-3.88-2.04.74-1.41,9.36,4.91-.74,1.41-3.88-2.04-5.2,9.91-1.6-.84Z"></path><path class="cls-3" d="m126.05,44.99l8.14-9.86,1.41,1.16-8.14,9.86-1.41-1.16Z"></path><path class="cls-16" d="m130.57,48.51l13.61-3.44,1.13,1.41-6.38,12.51-1.19-1.5,5.98-11.37.46.57-12.42,3.28-1.17-1.47Zm4.04-.06l1.45-.52,4.48,5.63-.81,1.32-5.12-6.43Z"></path></g><g><path class="cls-5" d="m36.89,135.62l10.22-7.68,2.88,3.82c.65.87,1.07,1.71,1.26,2.55.19.83.15,1.61-.12,2.34-.27.73-.77,1.37-1.51,1.93-.72.54-1.47.84-2.24.9-.77.06-1.53-.12-2.28-.54-.75-.41-1.44-1.05-2.1-1.92l-2.43-3.23.86.11-3.74,2.81-.81-1.08Zm4.46-1.66l.15-.87,2.4,3.2c.77,1.02,1.58,1.63,2.42,1.82.85.19,1.67-.01,2.48-.62.82-.61,1.25-1.36,1.3-2.22.05-.87-.31-1.81-1.08-2.83l-2.4-3.2.87.1-6.14,4.62Zm.79,8.64l1.73-5.42.88,1.17-1.72,5.43-.89-1.18Z"></path><path class="cls-14" d="m46.3,146.99l8.99-9.09.96.95-8.98,9.09-.96-.95Z"></path><path class="cls-11" d="m54.32,154.02c-.77-.56-1.41-1.22-1.93-1.98s-.83-1.48-.93-2.15l1.04-.53c.11.62.38,1.27.82,1.96.44.69,1,1.28,1.68,1.77.65.47,1.24.78,1.76.91.53.13.99.13,1.38,0,.39-.14.71-.37.95-.71.29-.4.41-.81.36-1.23s-.21-.83-.48-1.24c-.27-.42-.59-.84-.97-1.28s-.74-.88-1.11-1.34-.66-.92-.89-1.4c-.23-.48-.34-.98-.32-1.49.02-.51.22-1.04.63-1.59.37-.51.85-.88,1.43-1.11.58-.23,1.25-.27,2-.13s1.56.54,2.44,1.18c.58.42,1.1.92,1.55,1.5s.78,1.16.99,1.75l-1,.6c-.23-.62-.54-1.18-.94-1.68-.4-.5-.83-.92-1.29-1.25-.62-.45-1.19-.74-1.72-.87s-.99-.12-1.38.02c-.4.14-.72.39-.98.74-.29.4-.41.81-.36,1.23.05.41.22.83.5,1.24s.6.84.98,1.28c.37.44.74.88,1.09,1.34.35.45.65.92.88,1.4.23.48.34.97.33,1.47s-.22,1.03-.61,1.57c-.37.5-.84.87-1.43,1.09-.59.23-1.26.27-2.01.11-.76-.15-1.58-.55-2.46-1.19Z"></path><path class="cls-24" d="m68.43,161.75c-.89-.36-1.65-.85-2.29-1.45s-1.12-1.29-1.45-2.06-.5-1.58-.52-2.44c-.01-.86.16-1.72.51-2.59.35-.87.83-1.61,1.44-2.21.61-.61,1.3-1.07,2.08-1.38.78-.31,1.61-.47,2.48-.46.88,0,1.76.19,2.65.56.86.35,1.6.82,2.24,1.42.64.6,1.1,1.29,1.38,2.07l-1.12.47c-.28-.69-.67-1.27-1.17-1.73s-1.08-.83-1.76-1.1c-.71-.29-1.42-.44-2.13-.44-.71,0-1.38.12-2.01.38-.63.26-1.2.64-1.69,1.12-.49.49-.89,1.09-1.18,1.8-.29.71-.43,1.41-.42,2.11.01.7.15,1.36.42,1.99.27.63.66,1.19,1.17,1.68.51.49,1.12.88,1.83,1.17.68.28,1.35.42,2.03.43.68.01,1.36-.13,2.05-.43l.47,1.12c-.75.36-1.57.54-2.44.52-.88-.01-1.75-.2-2.61-.55Z"></path><path class="cls-12" d="m83.97,165.61c-.95-.12-1.82-.39-2.6-.81s-1.43-.96-1.95-1.62-.91-1.4-1.14-2.22c-.24-.82-.3-1.7-.18-2.63.12-.93.39-1.76.82-2.5.43-.74.98-1.36,1.65-1.88.67-.51,1.43-.88,2.28-1.1s1.76-.27,2.72-.15c.95.12,1.82.39,2.59.81.77.42,1.42.96,1.94,1.61.53.65.91,1.39,1.14,2.22s.29,1.71.18,2.64c-.12.93-.39,1.77-.82,2.51-.43.74-.98,1.37-1.65,1.87-.67.51-1.43.87-2.28,1.09s-1.75.27-2.71.15Zm.15-1.2c.76.09,1.48.05,2.16-.13.68-.18,1.29-.48,1.82-.9.54-.42.98-.93,1.32-1.53.34-.6.56-1.28.66-2.04.09-.76.05-1.48-.14-2.14s-.49-1.27-.91-1.81-.93-.97-1.55-1.31c-.61-.34-1.3-.56-2.06-.65-.76-.09-1.48-.05-2.17.13s-1.3.48-1.83.9-.98.93-1.33,1.53-.57,1.28-.67,2.04c-.09.75-.04,1.46.15,2.13.19.67.5,1.28.92,1.82.42.54.94.98,1.56,1.32.62.34,1.31.56,2.07.65Z"></path><path class="cls-25" d="m100.37,165.9l-.16-.92,6.87-12.53.23.48-8.77,1.5-.2-1.15,9.99-1.71.16.92-6.85,12.53-.25-.48,9.11-1.55.2,1.15-10.33,1.76Z"></path><path class="cls-22" d="m116.65,160.89l7.08-3,.46,1.08-8.32,3.53-4.99-11.77,8.07-3.42.46,1.08-6.83,2.9,4.08,9.62Zm-2.44-5.37l6.22-2.64.45,1.06-6.22,2.64-.45-1.06Z"></path><path class="cls-28" d="m129.53,155.76l-7.79-10.14,3.79-2.92c.86-.66,1.7-1.09,2.53-1.29s1.61-.17,2.34.09c.73.26,1.38.76,1.94,1.49.55.71.86,1.46.92,2.23s-.11,1.53-.51,2.28-1.04,1.46-1.9,2.12l-3.2,2.46.1-.86,2.85,3.71-1.07.82Zm-1.71-4.44l-.87-.14,3.17-2.44c1.01-.78,1.61-1.59,1.8-2.44.18-.85-.03-1.67-.65-2.47-.62-.81-1.37-1.24-2.24-1.28-.87-.04-1.81.33-2.82,1.11l-3.17,2.44.09-.87,4.69,6.1Zm8.63-.88l-5.43-1.67,1.16-.89,5.45,1.66-1.17.9Z"></path><path class="cls-27" d="m145.33,141.02c-.6.75-1.28,1.35-2.04,1.8-.76.44-1.56.72-2.4.83-.84.11-1.67.05-2.49-.18-.82-.22-1.6-.63-2.34-1.21-.73-.58-1.31-1.25-1.71-2-.41-.75-.66-1.54-.75-2.38-.09-.84,0-1.68.25-2.52.25-.84.68-1.64,1.29-2.41.6-.75,1.27-1.35,2.03-1.79s1.56-.71,2.39-.82c.83-.11,1.66-.05,2.49.18.83.23,1.61.63,2.34,1.22.74.58,1.31,1.25,1.72,2,.41.75.66,1.55.75,2.38.08.84,0,1.67-.25,2.51-.25.84-.68,1.64-1.28,2.39Zm-.94-.75c.48-.6.81-1.24,1.01-1.91.2-.67.26-1.35.18-2.02-.08-.68-.29-1.32-.62-1.92-.33-.61-.8-1.15-1.4-1.62-.6-.48-1.24-.81-1.9-.99-.67-.19-1.34-.24-2.01-.16s-1.32.29-1.93.64c-.61.35-1.15.82-1.63,1.42s-.82,1.24-1.02,1.92c-.2.68-.27,1.35-.19,2.03.08.68.28,1.32.61,1.93.33.61.8,1.16,1.4,1.63.59.47,1.23.8,1.9.98.68.19,1.35.24,2.03.16.68-.08,1.32-.29,1.93-.65s1.16-.83,1.63-1.43Z"></path></g><g><path class="cls-15" d="m76.25,100.44c-3.1,0-5.84-.74-8.23-2.22-2.39-1.48-4.28-3.61-5.65-6.4-1.38-2.79-2.06-6.17-2.06-10.17s.69-7.38,2.06-10.17c1.38-2.79,3.26-4.92,5.65-6.4,2.39-1.48,5.14-2.22,8.23-2.22s5.79.74,8.18,2.22c2.39,1.48,4.27,3.61,5.65,6.4,1.38,2.79,2.06,6.18,2.06,10.17s-.69,7.38-2.06,10.17c-1.38,2.79-3.26,4.92-5.65,6.4-2.39,1.48-5.12,2.22-8.18,2.22Zm0-8.36c1.1,0,2.07-.34,2.92-1.03.84-.69,1.5-1.8,1.99-3.33.48-1.53.72-3.55.72-6.06s-.24-4.58-.72-6.09c-.48-1.51-1.14-2.61-1.99-3.3-.84-.69-1.82-1.03-2.92-1.03s-2.07.34-2.92,1.03c-.84.69-1.51,1.79-2.01,3.3-.5,1.51-.75,3.54-.75,6.09s.25,4.53.75,6.06c.5,1.53,1.17,2.64,2.01,3.33.84.69,1.81,1.03,2.92,1.03Z"></path><path class="cls-15" d="m101.53,99.71l14.09-32.36,2.74,4.33h-18.32l4.18-4.7v10.27h-8.72v-13.68h29.93v6.4l-12.75,29.73h-11.15Z"></path></g><g><path class="cls-15" d="m62.13,123.22v-17.3h8.18c1.91,0,3.59.35,5.04,1.06,1.45.71,2.58,1.71,3.4,2.99.82,1.29,1.22,2.82,1.22,4.6s-.41,3.29-1.22,4.58c-.82,1.29-1.95,2.29-3.4,3-1.45.71-3.13,1.06-5.04,1.06h-8.18Zm4.89-3.91h3.09c.99,0,1.85-.19,2.58-.56.73-.37,1.31-.91,1.72-1.63.41-.72.62-1.57.62-2.56s-.21-1.86-.62-2.57c-.41-.71-.98-1.25-1.72-1.62-.73-.37-1.59-.56-2.58-.56h-3.09v9.49Z"></path><path class="cls-15" d="m82.8,123.22v-17.3h4.89v17.3h-4.89Z"></path><path class="cls-15" d="m89.35,123.22l7.64-17.3h4.82l7.66,17.3h-5.09l-5.98-14.9h1.93l-5.98,14.9h-4.99Zm4.18-3.36l1.26-3.61h8.45l1.26,3.61h-10.97Z"></path><path class="cls-15" d="m117.18,123.57c-1.42,0-2.78-.18-4.09-.53-1.31-.35-2.38-.81-3.2-1.37l1.61-3.61c.77.49,1.67.9,2.68,1.22,1.01.32,2.02.48,3.03.48.68,0,1.22-.06,1.63-.19.41-.12.71-.29.9-.49.19-.21.28-.45.28-.73,0-.4-.18-.71-.54-.94-.36-.23-.83-.42-1.41-.57-.58-.15-1.22-.3-1.92-.44-.7-.15-1.4-.34-2.1-.57-.7-.23-1.34-.53-1.92-.9s-1.05-.86-1.41-1.46c-.36-.6-.54-1.36-.54-2.29,0-1.04.28-1.98.85-2.82s1.42-1.52,2.56-2.03c1.14-.51,2.55-.77,4.25-.77,1.14,0,2.25.13,3.35.38,1.1.26,2.07.63,2.93,1.12l-1.51,3.63c-.82-.45-1.64-.78-2.45-1-.81-.22-1.59-.33-2.35-.33-.68,0-1.22.07-1.63.21-.41.14-.71.33-.89.56-.18.23-.27.49-.27.79,0,.38.18.68.53.9.35.22.82.4,1.41.54.58.14,1.23.28,1.93.43.7.15,1.4.33,2.1.56.7.22,1.34.52,1.92.89.58.37,1.04.86,1.4,1.46.35.6.53,1.36.53,2.26,0,1-.28,1.93-.85,2.78-.57.85-1.42,1.53-2.55,2.04-1.13.51-2.55.77-4.26.77Z"></path></g></g></svg>